<?xml version="1.0" encoding="UTF-8" standalone="no"?>
<!DOCTYPE svg PUBLIC "-//W3C//DTD SVG 1.1//EN" "http://www.w3.org/Graphics/SVG/1.1/DTD/svg11.dtd">
<svg width="100%" height="100%" viewBox="0 0 48 48" version="1.1" xmlns="http://www.w3.org/2000/svg" xmlns:xlink="http://www.w3.org/1999/xlink" xml:space="preserve" xmlns:serif="http://www.serif.com/" style="fill-rule:evenodd;clip-rule:evenodd;stroke-linejoin:round;stroke-miterlimit:2;">
    <g id="Py-Yellow">
        <g id="Eye" transform="matrix(0.91523,0,0,0.60322,7.404,10.4765)">
            <path d="M11.303,25.695L11.303,25.696C11.303,26.606 10.81,27.354 10.21,27.354C9.611,27.354 9.118,26.606 9.118,25.696L9.118,25.695C9.118,24.785 9.611,24.037 10.21,24.037C10.81,24.037 11.303,24.785 11.303,25.695Z" style="fill-rule:nonzero;"/>
        </g>
        <g id="Lid" transform="matrix(1,0,0,1,-20.5714,-5.47077)">
            <path d="M39.476,31.405C39.476,32.508 38.54,33.416 37.402,33.416C36.264,33.416 35.327,32.508 35.327,31.405C35.327,30.301 36.264,29.393 37.402,29.393C38.54,29.393 39.476,30.301 39.476,31.405Z" style="fill:rgb(250,216,73);fill-rule:nonzero;"/>
            <animate
                attributeName="opacity"
                values="0;0;0;0;0;0;0;0;0;0;0;0; 0;0;0;0;0;0;0;0;0;0;0; 0;0;0;0;0;0;0;0;0;0;0; 0;0;0;0;0;0;0;0;0;0;0; 0;100;0;0;0;0;0;0;0;0;0; 0;0;0;0;0;0;0;0;0;0;0; 0;0"
                dur="6.2s"
                repeatCount="indefinite" />
        </g>
        <path id="Snake" d="M23.853,0.751C20.92,5.635 21.369,7.035 21.369,7.035C22.319,8.095 21.668,7.871 21.807,9.3C21.807,9.3 21.296,11.514 21.296,13.099C21.296,14.685 21.113,16.168 21.113,16.168C21.201,16.08 23.114,16.07 24.109,15.218C25.342,14.161 30.356,12.123 30.356,11.419C30.356,9.919 28.518,9.553 29.223,5.501C29.454,4.173 28.767,1.037 27.798,0.861C26.829,0.685 23.853,0.751 23.853,0.751ZM14.757,2.249C14.757,2.249 12.12,2.617 10.446,3.674C8.772,4.731 5.237,4.725 3.651,6.487C2.065,8.249 1.027,10.981 1.203,12.478C1.38,13.976 0.608,15.997 0.911,17.41C1.175,18.643 1.824,19.529 1.824,19.529C1.824,19.529 2.25,17.831 3.395,16.862C4.54,15.893 10.19,14.487 10.19,14.487C10.19,14.487 10.064,13.561 11.469,12.076C12.506,10.776 12.93,10.359 12.93,10.359C12.93,10.359 13.734,4.667 13.77,3.564C13.942,3.077 14.806,2.347 14.757,2.249ZM37.991,4.076C38.925,6.841 39.538,8.861 39.817,11.273C39.763,14.326 40.852,14.861 39.306,16.972C38.144,18.086 34.978,18.56 30.867,19.09C28.214,19.433 26.714,19.889 22.246,21.136C18.712,22.071 16.385,21.71 14.099,22.853C11.894,25.058 11.14,29.904 11.14,29.904C13.051,30.615 16.379,29.242 18.41,29.831C19.902,30.263 23.23,26.795 26.995,25.52C30.94,24.183 32.678,24.947 33.936,24.424C36.626,23.306 45.823,25.767 47.014,22.744C48.477,19.757 46.434,14.993 45.553,13.611C43.065,9.514 44.648,6.844 37.991,4.076L37.991,4.076ZM16.729,24.46C17.563,24.46 18.227,25.147 18.227,25.995C18.227,26.845 17.563,27.566 16.729,27.566C15.893,27.566 15.231,26.845 15.231,25.995C15.231,25.147 15.893,24.46 16.729,24.46ZM31.05,25.776C29.518,26.139 28.116,26.334 26.374,26.908C24.585,27.941 23.159,28.881 23.159,28.881C25.45,31.908 25.137,33.658 30.502,37.064C37.394,41.439 37.09,40.104 40.731,42.836C44.615,45.751 39.918,37.9 36.566,35.931C33.137,33.669 31.263,29.517 31.05,25.776Z" style="fill:url(#_Linear1);fill-rule:nonzero;"/>
    </g>
    <g id="Py-Blue">
        <g id="Eye1" serif:id="Eye" transform="matrix(0.91523,0,0,0.60322,-2.31657,4.74961)">
            <path d="M11.303,25.695L11.303,25.696C11.303,26.606 10.81,27.354 10.21,27.354C9.611,27.354 9.118,26.606 9.118,25.696L9.118,25.695C9.118,24.785 9.611,24.037 10.21,24.037C10.81,24.037 11.303,24.785 11.303,25.695Z" style="fill-opacity:0.96;fill-rule:nonzero;"/>
        </g>
        <g id="Lid1" serif:id="Lid" transform="matrix(0.836534,0,0,0.925078,-24.3223,-8.8527)">
            <path d="M39.476,31.405C39.476,32.508 38.54,33.416 37.402,33.416C36.264,33.416 35.327,32.508 35.327,31.405C35.327,30.301 36.264,29.393 37.402,29.393C38.54,29.393 39.476,30.301 39.476,31.405Z" style="fill:rgb(51,109,157);fill-rule:nonzero;"/>
            <animate
                attributeName="opacity"
                values="0;0;0;0;0;0;0;0;0;0;0;0; 0;0;0;0;0;0;0;0;0;100;0; 0;0;0;0;0;0;0;0;0;0;0; 0;0;0;0;0;0;0;0;0;0;0; 0;0;0;0;0;0;0;0;0;0;0"
                dur="5s"
                repeatCount="indefinite" />
        </g>
        <path id="Snake1" serif:id="Snake" d="M22.72,0.788C19.823,1.103 18.804,0.982 17.131,1.592C14.669,2.493 14.878,7.077 14.172,10.213C13.78,11.956 12.416,12.932 11.798,13.318C10.917,13.868 11.586,15.47 10.775,15.474C9.396,15.48 8.719,16.292 7.56,16.497C4.146,17.1 2.884,18.37 2.884,20.698L3.578,23.584C5.478,23.946 6.166,24.643 7.523,24.643C8.761,24.597 8.729,24.734 11.505,24.059C12.68,23.773 11.157,22.354 14.903,19.419C16.622,18.072 17.298,18.113 18.979,16.888C20.596,15.708 19.89,14.522 20.595,8.004C18.426,7.236 22.72,0.788 22.72,0.788ZM30.281,7.027C30.209,8.471 32.25,11.716 31.677,12.201C30.306,13.361 27.005,14.692 24.803,16.277C22.601,17.863 21.062,16.879 17.857,18.822C14.95,20.583 14.481,21.441 14.481,21.441C16.155,20.56 18.094,20.661 20.649,20.221C23.204,19.78 24.619,19.417 29.552,18.36C32.87,17.605 37.818,17.589 38.545,15.74C39.145,13.961 38.554,8.21 37.014,4.736C36.064,2.589 33.299,1.248 29.584,0.992C29.584,0.992 30.853,3.99 30.281,7.027ZM6.72,18.652C6.818,18.631 6.944,18.652 7.048,18.652C7.882,18.652 8.546,19.336 8.546,20.186C8.546,21.034 7.882,21.721 7.048,21.721C6.212,21.721 5.514,21.034 5.514,20.186C5.514,19.442 6.03,18.796 6.72,18.652ZM35.726,25.337C35.416,25.348 35.151,25.377 34.922,25.41C33.481,25.618 32.365,25.849 32.365,25.849C32.035,27.867 32.88,28.998 33.716,30.89C34.371,32.371 35.726,33.886 35.726,33.886C35.726,33.886 38.803,33.524 41.534,31.146C44.265,28.767 43.376,26.841 43.288,25.52C41.834,25.652 38.905,25.366 36.749,25.337C36.389,25.332 36.035,25.326 35.726,25.337L35.726,25.337Z" style="fill:url(#_Linear2);fill-rule:nonzero;"/>
    </g>
    <defs>
        <linearGradient id="_Linear1" x1="0" y1="0" x2="1" y2="0" gradientUnits="userSpaceOnUse" gradientTransform="matrix(-6.25254,-10.9591,10.9591,-6.25254,29.8953,30.5536)"><stop offset="0" style="stop-color:rgb(249,213,66);stop-opacity:1"/><stop offset="1" style="stop-color:rgb(255,232,115);stop-opacity:1"/></linearGradient>
        <linearGradient id="_Linear2" x1="0" y1="0" x2="1" y2="0" gradientUnits="userSpaceOnUse" gradientTransform="matrix(18.4517,12.4988,-12.4988,18.4517,-5.12038,19.6936)"><stop offset="0" style="stop-color:rgb(90,159,212);stop-opacity:1"/><stop offset="1" style="stop-color:rgb(48,105,152);stop-opacity:1"/></linearGradient>
    </defs>
</svg>
